/* XPM */
static char *_f45f3e1cbb34a86ccb8212cdec1fce8VvWzDkSPG63W4fMk[] = {
/* columns rows colors chars-per-pixel */
"50 50 250 2 ",
"   c #5A3603",
".  c #4B2F02",
"X  c #6C3D00",
"o  c #663C03",
"O  c #39781C",
"+  c #34691D",
"@  c #3C742B",
"#  c #3B7A26",
"$  c #3C7A34",
"%  c #337323",
"&  c #3D5811",
"*  c #584607",
"=  c #455D12",
"-  c #585812",
";  c #5C4E0F",
":  c #6C4303",
">  c #6C4B0D",
",  c #64450A",
"<  c #744806",
"1  c #6C4D14",
"2  c #634418",
"3  c #744D16",
"4  c #7A5414",
"5  c #775718",
"6  c #6F540E",
"7  c #45671A",
"8  c #57661A",
"9  c #4E6F17",
"0  c #77661A",
"q  c #6E6B1C",
"w  c #6A4C27",
"e  c #6C5725",
"r  c #785A29",
"t  c #725B33",
"y  c #6C5431",
"u  c #476D26",
"i  c #536C22",
"p  c #5A6B22",
"a  c #556C29",
"s  c #5A662A",
"d  c #497525",
"f  c #4B732B",
"g  c #4D7B2B",
"h  c #457829",
"j  c #527D2C",
"k  c #587529",
"l  c #486B30",
"z  c #457B32",
"x  c #4C7835",
"c  c #527C3C",
"v  c #587937",
"b  c #546930",
"n  c #656829",
"m  c #756928",
"M  c #66762C",
"N  c #787529",
"B  c #676C34",
"V  c #7A6936",
"C  c #6C7D35",
"Z  c #657A38",
"A  c #767834",
"S  c #564728",
"D  c #557A42",
"F  c #687C42",
"G  c #786B41",
"H  c #824E11",
"J  c #895117",
"K  c #88611C",
"L  c #885625",
"P  c #964E24",
"I  c #A94825",
"U  c #B94829",
"Y  c #A4562A",
"T  c #B25734",
"R  c #BB5129",
"E  c #866729",
"W  c #966827",
"Q  c #85752C",
"!  c #8B6934",
"~  c #966737",
"^  c #8C763A",
"/  c #977738",
"(  c #94752D",
")  c #A76736",
"_  c #AF6E36",
"`  c #C45131",
"'  c #C4643A",
"]  c #9A7B49",
"[  c #927442",
"{  c #AB7C48",
"}  c #D77353",
"|  c #368627",
" . c #38952D",
".. c #388735",
"X. c #3B9836",
"o. c #2E852B",
"O. c #4C822B",
"+. c #46862B",
"@. c #53832D",
"#. c #5A8B2E",
"$. c #5A862F",
"%. c #42942D",
"&. c #438234",
"*. c #4C8534",
"=. c #498A39",
"-. c #538333",
";. c #5B8333",
":. c #548C32",
">. c #5B8D32",
",. c #54843B",
"<. c #5C843B",
"1. c #538B3D",
"2. c #5D8D3C",
"3. c #4C9234",
"4. c #4C943C",
"5. c #4C9B3C",
"6. c #459939",
"7. c #549334",
"8. c #5D9333",
"9. c #53933B",
"0. c #5A9A3B",
"q. c #569839",
"w. c #5E902F",
"e. c #718D2F",
"r. c #638D3E",
"t. c #678737",
"y. c #77873D",
"u. c #619634",
"i. c #649C36",
"p. c #689F37",
"a. c #669E39",
"s. c #689F39",
"d. c #67953B",
"f. c #77953D",
"g. c #68882C",
"h. c #48A339",
"j. c #55A63B",
"k. c #4BB73D",
"l. c #67A037",
"z. c #67A039",
"x. c #6AA13B",
"c. c #68A035",
"v. c #399942",
"b. c #4B8D42",
"n. c #538B43",
"m. c #5B8C44",
"M. c #598644",
"N. c #4E9A46",
"B. c #499746",
"V. c #539345",
"C. c #5C9344",
"Z. c #5A9B42",
"A. c #569B49",
"S. c #5A9853",
"D. c #5F8E5A",
"F. c #698543",
"G. c #688B47",
"H. c #758647",
"J. c #639443",
"K. c #6C9645",
"L. c #659C43",
"P. c #6A9C45",
"I. c #67974B",
"U. c #769948",
"Y. c #6B8954",
"T. c #6A9B54",
"R. c #789853",
"E. c #4AA647",
"W. c #5BAB42",
"Q. c #5CAA4B",
"!. c #57A647",
"~. c #59A855",
"^. c #5AB254",
"/. c #52B647",
"(. c #61A246",
"). c #6DA343",
"_. c #69AB46",
"`. c #64A34C",
"'. c #6BA44C",
"]. c #63AC4D",
"[. c #67AC49",
"{. c #72A544",
"}. c #74A54A",
"|. c #75A94B",
" X c #7AAA4D",
".X c #66B74C",
"XX c #73B54C",
"oX c #6CA552",
"OX c #64AC54",
"+X c #69A857",
"@X c #7CAC52",
"#X c #7DAC5B",
"$X c #75A857",
"%X c #68B557",
"&X c #74BA52",
"*X c #77B658",
"=X c #629B64",
"-X c #5EB860",
";X c #79A865",
":X c #66B965",
">X c #75B865",
",X c #6AA761",
"<X c #6EC25F",
"1X c #73CA5D",
"2X c #77C665",
"3X c #848A46",
"4X c #948849",
"5X c #859349",
"6X c #93924A",
"7X c #959758",
"8X c #909157",
"9X c #A58856",
"0X c #AD8E4F",
"qX c #87A348",
"wX c #81AD59",
"eX c #85A658",
"rX c #85B55C",
"tX c #97AC5A",
"yX c #AC9667",
"uX c #88AC67",
"iX c #94A765",
"pX c #8AB765",
"aX c #96B867",
"sX c #98B671",
"dX c #98AB74",
"fX c #A4B963",
"gX c #BBB477",
"hX c #B0AF6E",
"jX c #919268",
"kX c #CA9259",
"lX c #D28B65",
"zX c #E8986F",
"xX c #D9AB73",
"cX c #CBAA75",
"vX c #FFA37A",
"bX c #8BC475",
"nX c #A2C370",
"mX c #B4A480",
"MX c #DDB886",
"NX c #FEBA93",
"BX c #B5CB80",
"VX c #B3E4A2",
"CX c #C4D389",
"ZX c #D5D595",
"AX c #EED593",
"SX c #E5E192",
"DX c #FFE5AB",
"FX c #FFF2B8",
"GX c #CBEB98",
"HX c #FAFFC5",
/* pixels */
"i. X|.c.c.z.z.z.s.s.s.p.s.s.s.s.s.s.z.s.s.z.s.i.i.i.s.s.s.s.s.z.s.s.s.s.i.s.s.s.p.s.s.s.i.c.s.s.s.s.",
" XCXCX|.i.c.s.s.s.s.s.s.s.p.s.s.s.u.s.s.s.z.s.u.8.i.s.s.s.s.s.s.s.d.s.s.s.s.z.s.p.z.s.s.i.i.s.p.s.s.",
" XCXnX|.i.s.s.s.s.s.s.s.s.s.u.c.;.8.p.s.i.z.i.i.i.(.>XC.I.T.S.B.n.,XuXd.s.s.p.s.s.s.s.c.-.>.c.s.s.s.",
"p.{.qXx.z.s.z.s.i.u.a.s.s.s.a.m.I.uX$Xx L.).s.s.%XL.$X$X&.~./.B.v.S.;X;X Xs.p.s.x.x.s.u.#.i.z.s.z.s.",
"z.i.i.s.z.p.s.s.i.i.s.s.a.T.,X,XT.n.-.$XU.*.3.9.L.I.$X#X`.Q.:X^.B.S.x D x L.s.s.}.@Xx.u.@.x.}.s.s.s.",
"z.p.s.s.z.x.s.s.z.z.s.i.I.>Xv./.^.N.(.rXt.r.nX9 j pXd.P.Z.Q.6.!.pXG.R.uXY.uXx.s.z.wX{.{.{. X Xs.s.s.",
"p.s.s.s.s.s.p.s.i.z.s.z.B.E.^. .k.<XW.c.U.g.e.qXqXqXu.x.XX5.+.!.K.j M eXr.T.pX(.s.{.{.wX{.{.s.s.s.s.",
"u.i.p.p.s.s.z.s.s.s.s.0...^..Xh.k.k.<Xx.e.e.f.qXg.#.c.1Xj.&XXX).wXeXy.U.P.*X%X`.).i.x.@Xp.p.s.p.s.c.",
"8.i.#.8.c.c.z.s.z.i.'.B.# | d.w.h.j.[.[._.@X XP.|.0.%.W./..Xj.z.*X@XrXa.0.6.W.%XZ.'.s.s.s.s.c.>.>.s.",
"f u.-.i.|.#X{.p.s.S.~.^.0.g.m q 9 O.0.!.0.(.$X>X2XW.h.!.N.3.3.(.*X*X*X*X&Xj.k.h.$XC.s.s.s.s.c.u.>.i.",
"u #.#.x.@X}.z.i.L.:X^.%XK.4XW Y W V Z I.A.B.E.B.:X~.b.@ C.;X>X!.5.]._.2X1Xq.j.7.'.pXaXi.s.z.s.z.@.>.",
"i.i.{. Xz.c.|.}.$X:X^.OXf.0 P T zXlX8XI.b.B.E.E.v.o.x b B a m.+X .j.0.|.XX_.&Xx.f.sXuXU.z.s.s.p.s.i.",
"z.{.wX@Xz.|.@XK.1.OX[.| e.( T U _ kXhXsXP.5.N.X.X.3.5X^ / Q {.pXW.Q.L.(.XXrX&XU.$.H.iXeXJ.s.i.z.s.s.",
"z.).x.i.c.).t.H.g.O.| | d.m L Y Y _ 4Xf.-.0.Q./.X.q.N H T kXfXj.W.(.oXL.7._.a.s.eXU.R.R.T.z.).z.s.s.",
"s.s.s.s.z.H.n 6XfXnX&X7.d.U.[ L m y.K.U.K.oX^.E./.j.Q Y R ' qXj.6.!.C.!.%.%.X.5.oX2.$X;XI.R.CXrXs.s.",
"s.s.s.z.F.R.4XN 7XtX{.0.:.I.t.A t.m.I.+Xm.=.4.B.v.Q.4X) P W p.j.OX+Xh `.Q.5.h.%.5.oX$X2.m.I.SXnXs.s.",
"s.s.s.a.T.I.e.aXtXU.2.+X# 4.q.+.h =.B.$ &.S.C...$ v.R.7Xm A '.1.j k v h &Xh.^.<X+.L.I.<.;XT.;Xx.s.s.",
"s.s.s.s.Z.a.8.u.U.;.-.;XOXQ.%.6.% N.OX=.&.=.x @ b.V.m.R.G.-.| -.F.7XaXd Z.OX<X2X3.8.R.iXuXT.Z.s.s.z.",
"s.s.z.s.$X3.7.).8.J.c *.Z.A.6.h.!.E.Z.C.1.h h L.4.Z.r.#X#X[.q.7.t.A 5Xd d.*X(.%X].oX$X;XR.v c a.s.p.",
"s.s.z.bXbX=.Q.*X+X$X+X1.b.4.5.5.| 6.2.@.Z.`.+.| :X%X|.}.3.W.&X>.Z t.U.r.-.O.d i.@.@.}.P.f f R.aXs.s.",
"s.s.s.n.~.2XX.6.Q.4.V.&.&.% ....| 5.eX}.oX].6.6.h.^.(.L.O W.rX{.*.=.# % O.d.f.N A C U.j &.`.=.;.s.s.",
"s.s.i.@ b.| 4.Z.Q.z &.b.S.n.A.9.'.g Z H.oXN.o.o.X.%X$XoX3.7.>.2.&.N.X.| # k V H J ! g. X>XQ.Z.(.s.z.",
"s.d.7.a.z ,.u M p k x ,.+X+X1.u f H.hXiXM.&...$ o.b.z ,...b.S.+Xn.@ X.N.|.6X) I ` vX0Xp g q.`.|.s.s.",
"8.8.a.8.uXy.4XE ] [ n F #XI.g G.F.B G Y.v n.M.@ D @ b F l S.>X+Xm.z +XOXwX8XY U ` ` xXcXR.*.=.|.s.s.",
"i.7.#.8.H.V P T } NXcXn F.,.u v f u x G.x @ F t.b B y V s M.=XA.v k n.# -.8XW P I zX0X3XeXf f |.s.s.",
"c.i.f @.hXMXI ` ` lXxXe 7 @ u 7 + &.@ @ + #XZX* e 9XL ~ [ B + ..,.7 + g d M 6X/ r / m Z t.G.R.;.z.s.",
"z.s.-.8.T.yXP P T L ! k R.K.H.& d :.`.:.-.M * 0 ^ E _ zX{ 4XK.C.1.@ h t.$.i t.k k t.j M.Y.G.G.v p.s.",
"s.p.c.x.$XF y ~ ! m Z $X#X@ F.a j t.g.9 9 8 0 Q 0X0 Y ) xXhXp O 9.C.;.7 9 Z + d # &.z z c c c T.s.s.",
"i.8.u.s.$X Xd.F v v <.n.n.M.D s 8 Q Q Q N ; , K N 0 / < 0Xq 9 $.O.d k p m M i t.J.z M.c c D c d.s.s.",
"z.>.@.i.s.s.s.u.c n.n.+ n.VX;Xl 8 * ( ( E 6 ( SX- - Q hXN M M = i i M 3Xn 8 H.i v <.R.T.2.u.u.a.s.i.",
"8.@.d i.8.u.s.>.l l Y.G.D D.$ $ ,.j * 0XMX> E DX6 - r AXFXHX9Xr 8X- y.HXGXj M s k F.I.L.s.s.s.s.s.u.",
"u >.g 8.g @.x.d.P.Y.Y.r.P.J.D.=Xb.I.M e 1 > 0 L Q ^ AX9XFXyX  / [ - i t.;.G.H.t.d.s.s.s.z.c.i.s.z.z.",
"u 8.i.O.j i. X@X Xs.s.i.s.s.x.z.s.i.8.k * 5 L X X 4 W L DX{ r 9X8XZ D l t.d.i.s.s.s.s.s.s.z.8.i.s.s.",
"i.z.i.-.i.s.s. Xs.s.s.s.s.s.s.s.s.s.i.a.aX1 0XW X ( AX9X[ ^ gXuXL.s.d.s.x.s.s.s.z.s.z.z.s.i.i.i.s.s.",
"s.s.z.s.s.s.s.s.s.s.s.s.s.s.s.s.s.s.s.s.p.s 3 4 o : H > * N {.s.s.z.s.s.z.z.s.s.s.i.i.d.s.s.z.z.s.s.",
"s.s.s.s.s.z.s.z.s.s.s.i.u.u.i.s.s.s.s.s.p.d.V ] < J ( 6   eXs.s.x.s.s.s.z.z.i.s.s.i.8.i.s.s.s.s.s.s.",
"s.s.i.z.z.s.s.s.s.s.s.s.8.i.s.s.s.s.z.s.c.u.r.t o K K , * s.s.s.s.s.s.s.i.s.s.s.s.s.s.s.s.z.c.z.s.s.",
"s.p.@.8.c.s.s.p.p.s.s.z.c.s.s.s.s.p.s.s.c.u.#.V L   W 1 gX8.s.s.s.s.s.i.8.i.s.s.s.s.s.s.s.i.s.s.s.s.",
"p.z.>.>.s.s.s.s.aXaXz.z.s.s.s.z.s.s.s.s.s.s.c.hX3 < J   ZX7.s.s.z.s.s.u.i.s.s.s.s.i.s.s.i.i.s.s.s.s.",
"s.s.p.j i.s.p.@XZXSX@Xi.i.s.s.z.s.s.s.s.z.s.s.C >   L X mXr.s.s.s.s.s.s.s.s.i.p.i.8.s.i.>.i.s.p.s.s.",
"s.s.s.s.s.s.s.p.bXaX XpXx.p.s.p.i.s.p.s.i.s.z.3XW H H 3 w a.s.s.s.s.s.s.i.z.pX Xi.:.u.>.>.i.s.s.z.s.",
"s.s.s.s. Xs.s.wX|.c.nXSXaXp.s.i.8.i.z.s.g >.i.t J X X X o tXs.s.z.s.i.u.i.aXSXnXx.8.u.8.i.i.s.i.s.i.",
"s.s.s.s. X@X@X X|.x.aXCX Xi.s.s.i.s.s.s.8.f u.  0X. : : r 2 s.p.s.p.u.i.i.@XCXaXz.i.s.i.s.z.s.s.p.s.",
"s.s.s.s.s. XpX XwX{.c.{.c.s.s.i.u.p.s.s.i.g B * : < : o ( ! yXp.s.s.p.s.z.i.{.x.z.z.s.s.s.z.s.s.s.p.",
"a.u.i.s.s.s.x.|.x.s.s.p.s.s.s.s.i.z.z.s.a.dXo 2 4 W K   6 / ( 7X{.p.s.i.s.s.i.z.s.i.s.s.i.u.i.z.s.s.",
">.7.s.s.s.s.s.s.s.z.s.s.s.s.s.z.8.i.z.x.B y   1 : : 4 6 5 5 > e K.s.s.rXs.z.z.z.s.s.s.s.i.>.8.i.p.8.",
"@.8.s.s.s.s.s.p.i.s.z.s.w.u.c.s.i.8.t.G w w ! 3 > 0X* E 1 3 , 9Xs.s.s.s.s.i.s.s.p.s.s.i.8.8.@.@.u.@.",
"j a.u.s.s.s.s.i.u.p.s.i.>.>.s.p.z.R.y y t 5Xs.t.3 * e hX8Xw ] t jX}.{.s.u.u.s.s.s.s.i.u.#.j j >.j f ",
"@.8.8.i.c.z.z.x.i.s.s.p.s.-.u.p.z.s.{. X Xp.p.r r r t 8.x.@XeXS dXs.s.u.u.s.p.s.s.s.i.s.s.#.u.>.#.$.",
">.i.s.p.z.z.s.s.p.s.p.s.s.>.i.s.z.s.s.s.p.p.}.w L {.x.z.z.|.x.x.s.s.s.a.s.s.s.s.s.s.z.c.s.z.s.i.s.8."
};
