/* XPM */
static char *_bc0669013ea4786cf295e41490fc92bK7nl6W6Z19S6E3Yr[] = {
/* columns rows colors chars-per-pixel */
"50 50 165 2 ",
"   c #3E0000",
".  c #2D3A2B",
"X  c #460C04",
"o  c #4D0A01",
"O  c #510000",
"+  c #5C0100",
"@  c #580C04",
"#  c #491309",
"$  c #53170F",
"%  c #4E1D18",
"&  c #690F07",
"*  c #660906",
"=  c #700904",
"-  c #6B150A",
";  c #651B0F",
":  c #6A1A14",
">  c #771712",
",  c #542219",
"<  c #642A1C",
"1  c #6B2B1D",
"2  c #7D231B",
"3  c #682D25",
"4  c #743222",
"5  c #773F3E",
"6  c #395139",
"7  c #454D35",
"8  c #44503A",
"9  c #69442B",
"0  c #724131",
"q  c #77523F",
"w  c #456F26",
"e  c #467026",
"r  c #4A7528",
"t  c #4D7B2A",
"y  c #507E2C",
"u  c #76703D",
"i  c #676B37",
"p  c #6A5D4C",
"a  c #765C41",
"s  c #7F5E4A",
"d  c #4D674B",
"f  c #5D7751",
"g  c #546656",
"h  c #766946",
"j  c #88110B",
"k  c #94150F",
"l  c #AD1811",
"z  c #A11E16",
"x  c #89251B",
"c  c #93221C",
"v  c #A62017",
"b  c #A2231C",
"n  c #932820",
"m  c #99342B",
"M  c #AA2B22",
"N  c #A82D26",
"B  c #B22923",
"V  c #B92E27",
"C  c #A6372E",
"Z  c #BE332C",
"A  c #C5201A",
"S  c #C72B25",
"D  c #CD3027",
"F  c #E6352B",
"G  c #944236",
"H  c #81663F",
"J  c #D8432F",
"K  c #C14C3B",
"L  c #CD503E",
"P  c #EA453C",
"I  c #E24436",
"U  c #F5433C",
"Y  c #8A524A",
"T  c #8D5C4E",
"R  c #9E5C50",
"E  c #A74A42",
"W  c #B75F53",
"Q  c #90604E",
"!  c #9D7F67",
"~  c #917E6D",
"^  c #BC6F67",
"/  c #C74C47",
"(  c #E24B42",
")  c #E4574E",
"_  c #F25543",
"`  c #F05749",
"'  c #FF5448",
"]  c #F5594C",
"[  c #DA644A",
"{  c #EC6754",
"}  c #FB6950",
"|  c #FE735E",
" . c #CB6F60",
".. c #C87A6F",
"X. c #CC7E71",
"o. c #FF6E61",
"O. c #E97B6E",
"+. c #F37569",
"@. c #4F812C",
"#. c #53842D",
"$. c #56892F",
"%. c #58882F",
"&. c #578C30",
"*. c #5A8D31",
"=. c #5D9333",
"-. c #619634",
";. c #659C36",
":. c #689F37",
">. c #679E38",
",. c #689F38",
"<. c #62953B",
"1. c #6AA03A",
"2. c #6A9B44",
"3. c #6FA341",
"4. c #72A545",
"5. c #75A74A",
"6. c #76A84B",
"7. c #79AA4E",
"8. c #79A248",
"9. c #7CAC52",
"0. c #7EA75C",
"q. c #7D8F7B",
"w. c #88844D",
"e. c #82AF57",
"r. c #80AE58",
"t. c #84B15C",
"y. c #84B057",
"u. c #9C8265",
"i. c #909B60",
"p. c #8CB663",
"a. c #87B467",
"s. c #93B966",
"d. c #99BD6C",
"f. c #D98576",
"g. c #E38676",
"h. c #FF8472",
"j. c #FC957B",
"k. c #F69D7D",
"l. c #A2C276",
"z. c #A4C479",
"x. c #ADC87F",
"c. c #A9C67D",
"v. c #999E87",
"b. c #AE9984",
"n. c #99AF98",
"m. c #D79187",
"M. c #DE9681",
"N. c #FF9E84",
"B. c #C0A984",
"V. c #FFA48E",
"C. c #FFA291",
"Z. c #FFBA9C",
"A. c #CDB8A5",
"S. c #FFBBA1",
"D. c #B1CA81",
"F. c #BACE81",
"G. c #BCD2BD",
"H. c #C1D185",
"J. c #C8D588",
"K. c #C3D38A",
"L. c #D7DC90",
"P. c #D9DD91",
"I. c #E4E191",
"U. c #EDE490",
"Y. c #FFC7A8",
/* pixels */
">.7.6.:.,.,.,.,.:.:.1.:.:.:.1.:.:.:.:.1.1.:.:.;.;.;.1.:.:.;.1.:.>.1.:.>.1.:.1.:.:.1.:.:.,.,.,.,.,.,.",
"7.J.H.4.,.,.,.,.1.:.;.1.;.1.:.1.1.-.;.:.:.;.1.-.-.-.:.:.:.1.1.:.:.1.:.>.>.:.>.:.>.>.1.>.;.>.,.:.,.,.",
"6.H.F.4.>.,.,.,.1.;.:.1.1.;.-.:.$.=.1.:.:.1.;.1.;.:.:.1.:.1.;.:.1.>.:.:.1.>.:.:.:.1.:.1.#.*.,.,.,.,.",
":.4.4.,.1.,.,.,.;.-.;.:.:.:.;.-.-.-.;.1.:.1.:.:.1.:.1.;.;.=.;.;.$.=.:.>.:.:.>.1.1.1.1.=.*.;.,.,.,.,.",
">.:.:.:.>.>.1.>.-.;.:.;.:.1.;.1.=.=.;.:.1.:.1.:.1.:.:.:.;.&.-.&.t #.>.:.>.:.>.:.3.9.1.=.*.,.4.,.,.,.",
"1.>.:.1.>.1.:.1.1.;.:.1.1.1.*.$.$.-.1.;.1.:.;.1.;.:.1.1.1.=.$.=.#.:.1.:.>.:.1.:.1.9.5.3.5.6.9.,.,.,.",
":.;.:.>.>.:.:.>.:.1.:.1.:.:.;.$.1.:.1.1.;.;.1.:.:.1.:.:.1.-.=.;.-.=.:.;.=.=.1.:.1.1.3.t.4.4.,.:.,.,.",
"-.=.;.:.1.:.1.>.;.1.:.;.1.:.1.1.1.:.:.:.:.1.:.:.:.:.:.1.:.:.:.1.=.@.=.=.#.-.>.:.1.1.1.9.,.>.:.>.;.,.",
"=.1.$.-.1.>.1.>.>.>.1.:.1.1.:.1.1.:.;.1.1.:.1.;.;.1.:.:.1.:.:.:.:.&.&.@.@.:.:.:.1.:.;.1.;.1.1.=.*.1.",
"t =.$.-.4.t.3.1.1.:.>.:.1.4.l.1.:.;.1.:.;.:.;.-.;.:.;.;.;.1.;.1.:.=.=.*.:.:.1.>.;.:.1.:.:.:.:.=.*.-.",
"e $.%.1.9.4.1.1.1.1.1.;.1.x.U.l.:.1.:.:.:.1.;.;.;.;.-.;.1.:.1.:.:.1.:.:.:.:.:.>.:.;.1.:.1.:.:.:.#.*.",
":.:.4.6.1.1.4.4.:.;.1.1.1.7.x.4.:.;.1.:.;.;.;.-.;.1.1.;.:.;.1.:.:.:.1.1.:.:.>.>.;.-.:.;.1.:.1.1.;.>.",
">.4.r.9.1.4.9.7.1.;.1.:.:.1.1.;.1.1.;.;.=.1.-.-.:.1.;.;.:.:.1.;.=.-.:.:.:.;.:.1.:.-.;.1.1.1.;.1.,.,.",
"1.1.1.:.1.3.1.1.1.1.:.;.:.;.1.:.:.:.1.;.1.1.1.1.:.;.=.;.1.-.=.;.=.=.1.:.1.1.:.:.1.:.1.:.1.1.1.1.,.,.",
":.,.,.,.,.>.1.>.;.;.1.1.1.1.;.:.;.1.;.:.1.=.1.;.1.:.;.1.1.;.=.&.&.@.=.;.=.:.1.;.;.1.:.:.1.y.J.9.,.,.",
",.,.,.,.,.,.>.1.:.1.:.:.:.:.:.1.1.:.:.1.=.6 f 4.:.:.;.1.:.:.;.w $.&.&.@.=.:.:.:.1.:.;.1.1.z.I.l.,.,.",
":.:.:.1.:.1.1.:.1.-.;.;.-.,.,.;.;.:.1.1.>.g G.d a.,.,.,.,.,.,.*.=.;.@.@.1.;.1.:.:.1.:.:.:.1.p.1.:.:.",
"1.1.:.:.:.;.:.;.1.,.=.,.=.;.;.=.;.:.1.1.5.q.q.n.6 ,.,.,.,.,.,.,.1.;.=.;.;.1.:.;.1.;.1.:.;.1.1.1.1.1.",
";.:.;.=.=.;.:.1.1.1.-.=.=.;.=.,.:.1.1.1.9.3.v.7 8 r.2.,.,.,.,.,.:.:.:.:.:.:.1.1.:.:.;.1.:.:.:.1.;.:.",
":.1.1.:.-.:.:.1.;.1.,.,.1.1.=.,.1.1.1.1.>.3.A.b.~ p 2.,.,.,.,.,.:.:.1.1.1.:.:.:.:.1.:.:.1.;.1.1.:.1.",
":.:.1.;.1.:.:.;.1.1.1.;.,.,.,.,.;.:.,.,.7.3   # o $ , i ,.,.,.e.c.4.1.1.;.1.1.1.1.;.1.1.1.1.-.;.:.:.",
"1.;.;.:.;.1.:.1.1.;.1.1.,.,.,.,.;.1.,.,.9 ; x = O * : 3 h ,.:.x.U.z.1.1.:.:.1.1.1.1.1.1.1.;.;.-.1.;.",
"1.-.=.-.-.:.;.1.:.;.;.1.,.,.,.,.1.:.1.i @ x N k j n E ^ Y T e.8.z.1.:.1.1.:.;.1.7.3.1.4.1.1.1.;.:.:.",
"=.=.;.=.=.:.1.:.1.1.1.;.,.,.,.,.:.:.u   m N Z ) +.O.g.f.m.< B.9.;.:.:.;.1.:.1.:.1.4.7.7.1.;.;.:.1.1.",
";.=.&.=.@.=.1.=.5.t.3.,.,.,.,.;.-.-.% : c V ( | h.V.Z.M.f.^ 9 6.;.:.:.1.:.:.1.:.1.1.1.1.7.1.:.:.;.1.",
"1.;.r @.$.#.$.=.9.3.,.,.,.,.,.,.-.;.# 2 M S P ] { V.Y.Y.f.f.< 1.1.:.1.;.;.1.:.;.6.9.1.4.7.1.:.:.:.:.",
":.1.&.=.;.@.t ;.;.=.;.,.,.,.,.,.:.4.X > B A U ' | j.k.Z.V.W 4 1.1.:.:.1.:.:.1.1.1.9.4.1.1.1.:.:.:.1.",
":.;.:.1.5.2.,.1.;.*.=.,.,.,.,.,.:.:.u & z D U F _ | [ j.g.X.< 1.:.:.;.:.1.:.;.:.1.4.1.;.1.1.:.1.1.;.",
";.=.-.,.7.9.,.-.;.t #.;.-.;.,.,.:.,.,.X m v D P I _ } [  .R T :.;.=.&.;.:.1.:.:.1.1.;.1.1.-.-.:.1.:.",
"1.*.#.;.,.;.,.-.#.y t -.#.-.,.,.:.,.,.w.@ C M l I _ J L G # 8.:.1.-.@.&.;.;.-.-.1.1.1.;.:.;.-.1.:.-.",
"=.@.r ;.=.-.,.*.w -.%.#.r -.,.,.,.,.;.-.T + c / b b K x 1 ! ,.-.=.-.$.t -.&.@.=.:.1.1.;.1.:.:.;.:.-.",
"e &.t *.t #.3.;.-.,.-.r =.:.,.,.,.,.;.>.,.Q O & > - - ; u.4.:.-.t #.=.=.-.@.@.;.1.;.1.1.;.1.:.1.:.1.",
"e =.-.#.t ;.9.7.7.1.>.;.:.,.,.,.1.;.=.;.1.1.u.0 Y q a i.1.1.:.;.&.w #.;.1.-.;.:.:.1.:.1.:.;.-.;.:.:.",
",.,.;.#.;.,.2.7.1.:.,.,.:.,.,.,.:.:.;.-.1.1.1.1.1.1.1.1.;.1.:.1.1.:.;.1.;.1.:.1.:.:.;.1.:.1.;.-.1.:.",
",.,.,.,.,.,.,.,.:.,.,.,.,.,.,.,.1.:.;.1.1.-.:.1.=.=.;.1.:.:.1.:.:.:.:.1.:.:.1.:.1.-.;.-.:.1.1.:.1.;.",
",.,.,.,.,.,.,.,.,.,.,.;.=.-.;.,.;.1.:.:.1.*.=.-.@.t ;.1.:.1.;.:.:.1.:.:.:.1.;.:.;.;.-.;.:.;.1.:.:.:.",
",.,.;.,.,.,.,.,.:.1.:.:.-.-.1.1.:.1.:.:.1.-.$.=.t =.1.1.1.;.:.1.1.;.:.:.;.;.:.1.,.,.:.,.:.:.:.:.;.1.",
",.,.#.-.,.,.,.,.>.>.>.1.1.1.1.>.;.1.:.1.:.-.$.;.;.-.1.1.-.-.;.1.;.1.1.;.-.;.:.:.,.,.,.:.:.:.:.:.1.:.",
",.,.*.*.,.,.,.,.d.d.1.1.1.>.>.1.:.:.:.:.1.:.:.:.-.t =.=.#.=.1.;.:.:.1.-.;.1.:.1.>.>.:.:.;.;.:.:.:.:.",
",.,.,.y ;.,.,.9.L.L.6.;.:.>.:.:.1.;.1.:.1.:.:.1.1.=.$.$.t -.:.1.1.:.;.;.1.;.;.:.;.=.;.;.&.;.:.:.1.;.",
",.,.,.,.,.,.1.1.s.t.4.t.1.1.:.>.;.1.:.;.;.;.1.;.;.=.$.#.=.1.1.:.1.;.1.1.1.1.t.4.;.&.;.&.&.;.,.,.;.1.",
",.,.,.1.6.1.1.9.6.1.x.I.s.1.:.;.-.;.:.1.@.&.;.%.t -.:.1.:.:.:.;.:.1.;.-.=.s.U.x.1.=.=.=.;.,.,.,.1.;.",
",.,.,.1.6.9.t.6.6.1.s.J.7.>.:.>.;.:.:.:.=.r =.t #.;.1.;.1.;.:.1.:.1.=.;.1.7.F.d.1.>.;.>.,.,.,.,.1.1.",
",.,.,.,.,.9.t.7.t.6.1.4.1.1.1.-.=.;.1.:.;.t =.=.;.;.:.:.1.:.:.1.1.;.;.1.1.1.1.1.,.,.,.,.,.,.,.,.1.1.",
";.=.;.1.>.>.1.6.1.>.:.:.1.:.:.:.;.;.1.1.1.;.-.;.=.=.:.1.1.:.:.:.:.;.:.1.:.1.;.1.;.1.1.1.;.;.;.>.1.1.",
"*.=.;.1.:.:.1.>.1.:.:.1.>.1.>.>.-.;.:.:.1.:.=.*.=.@.=.;.-.:.1.;.:.1.:.:.:.1.:.:.1.1.1.1.;.&.&.;.1.=.",
"@.=.1.>.>.1.>.1.:.>.:.>.=.-.1.1.;.=.;.1.:.:.:.r @.%.#.%.&.:.:.:.:.1.1.;.:.:.1.;.1.;.1.=.=.=.@.$.=.@.",
"#.;.=.>.:.:.1.;.=.;.:.1.$.$.:.:.:.1.:.:.;.1.:.%.&.;.$.r =.1.:.1.:.;.1.:.=.-.:.1.;.1.1.=.&.@.@.&.t e ",
"#.=.=.1.1.:.:.:.-.;.1.1.;.@.-.1.1.1.:.:.1.1.;.:.;.;.$.=.:.:.:.:.1.:.:.-.-.:.:.:.:.:.:.:.,.&.;.&.=.#.",
"&.;.>.1.>.1.>.>.:.1.1.1.:.=.-.:.;.1.1.:.:.:.:.1.1.:.1.1.:.1.1.:.:.:.;.;.1.:.:.:.:.:.:.:.1.1.;.;.1.=."
};
