/* XPM */
static char *_9e99a639de64d0082f89c7b0e22fa10zJLvGLcFqsDwZDXP[] = {
/* columns rows colors chars-per-pixel */
"50 50 71 1 ",
"  c #456F26",
". c #467026",
"X c #4A7528",
"o c #4D7B2A",
"O c #507E2C",
"+ c #4F812C",
"@ c #53842D",
"# c #56892F",
"$ c #58882F",
"% c #578C30",
"& c #5A8D31",
"* c #5D9333",
"= c #619634",
"- c #659C36",
"; c #689F37",
": c #62953B",
"> c #679E38",
", c #689F38",
"< c #6AA13A",
"1 c #6A9745",
"2 c #6FA341",
"3 c #70A443",
"4 c #71A544",
"5 c #72A645",
"6 c #72A646",
"7 c #73A646",
"8 c #73A647",
"9 c #74A645",
"0 c #74A748",
"q c #76A848",
"w c #75A84A",
"e c #77A94B",
"r c #78A94A",
"t c #78A94D",
"y c #78AA4D",
"u c #7BAB4D",
"i c #7AAA4E",
"p c #7AAA50",
"a c #7BAB51",
"s c #7BAC51",
"d c #7CAC53",
"f c #7DAD53",
"g c #7EAE56",
"h c #80AF58",
"j c #84B057",
"k c #83B05B",
"l c #86B259",
"z c #84B15D",
"x c #8AB461",
"c c #8FB763",
"v c #92B966",
"b c #93B966",
"n c #98BC6A",
"m c #9ABD6D",
"M c #A0C176",
"N c #A4C377",
"B c #A3C378",
"V c #ACC779",
"C c #A9C67D",
"Z c #ADC87F",
"A c #BACE81",
"S c #C1D185",
"D c #C3D38A",
"F c #C8D588",
"G c #D4DA8E",
"H c #D7DC90",
"J c #D9DD91",
"K c #E3E191",
"L c #E7E291",
"P c #ECE490",
"I c #EDE490",
/* pixels */
">ie-<<-<<<<--<<-;;;<;;;---;<-;;<<<--<<-<;<<-<<-<-;",
"iFS7-<<<-<<<;;;<<=-;<-<*==;;;<;;<<<<;;<;;;;;-<<;;<",
"eSA7;<-<<--<<;=;#*<;;<-<--<<<;<-<<;;-;;;;<<<##<-;;",
">77-;<<--=---;-===<;;;<;<;;;-*--##;;<<-<<<<*#-<<<-",
"-<<<;;;;==<<;;;<*$-<;<;;<;<;-*=%X#;;;<;;<u<*%<2<;;",
"<-<<;<<-<-<<-;*#&=;;;;<--;;;;#%*#;;;;;;<<f525ue<<<",
"-;--;;<;;-;<-<*#<;<<;<;<<;;<<**;-*<=**<;<<<g32<<-;",
"**;;-<;;;;<<<-;<<<-;<-;;;;;<;<;<*+**@*;;<<2g<<<--<",
"*<#*<-<<<<<;<<<<-;;;;;;--<<;;;;<;#%+@;;;<;;<<-<*#<",
"o*#;7g<<-<<-<0M3<;<;;;-*-;*-<;<-;**%-;;;;-<;<<<*#=",
"X##<s7<<<<<;<CPM;;;;;;;-<-*-<;;;-<;<;;;;-;<;-<-<#&",
"-<<9<<70;-;;<uV5-<;;-;-*-;<;-;<;<;;;;;;;-*;--<<<;<",
"<3fu<5sr<;;-<<<;<<;-*;--;<--;<;-*--;;<;;<*;<<--<<<",
"<<<<<2<<-;;;-<;<;;;--;<;;-*-<=*-**;<--<;;;<;<<<<<-",
"<<;<<<;<<;;<<<;;<;<-;;==<--<;-*#%+*-*<;<;<;;<lFl;-",
"-<;--<;-<;-<<-<--;<-<---<;;;<<- #%#+*;-<;;;<<BLm;<",
";<;-;<;;;---=<<-<;;<<<<<<<<<*<-#*-++-<;<;-;<;<l<;;",
"<-<;;;;;;-*-*=-=-;<5w<<<-<<<<<<<--*-<--<;<;;-<<<<<",
"-;<**-;;<;-=-**-<-;<s2e2<<--;--<<<<<-<;;<;<-;;<<;;",
";;;;--;;<;;<;;=-;<<-<<w<<-<<<<;;<<<<-<<;-;<;;<-<<;",
";<;;;<-;-;;<-<;<;;<;5<<<-<<<;<;<V<<<;<<<;<<<<<*<-;",
";---;;<;;<;-<;;;<<-<5g<<<-<<;-<ZPN<<;-<<<;<<<<<*<;",
";-**;<-<;;<-;;<<--<;<u<<-<<<<ujqN<;;<--<e<<5<<---<",
"**-*#<;;<<<;<;-<;;;;<<<<*-<<5FHs-;<;<;<;<<ju<-<-<;",
"-*%*+*<*ql<<<<-**-;-;-;-+-<;<VV5;<-;;<<;<<q<9<;;;;",
";<X+%+%*9<<<<<<-*-;<<<;<*#-<<<<<;;<;<-;;5s<<r<<;<;",
";-%*-+o-<*-<<-<<<;;;;;;;-#--<<<<<;<;;<;-<g<<<<<;-;",
";;<<01><-#*-<<<-<;<;-<<;<-<-<<<<;;-;;;;<<5<<<<-<<;",
"-**<es<*-++<--<;;<-<;<;-<;;;;;<;-*%-<--<<<<<;==;;<",
"<##-<-<*#+o*+%;;;;----;<;-<<<;;;--+%-<--<<<<<-=<<*",
"*+X-**<& *#+o*;<;<-*---;;;-;<;<***#+*%+%-<<-;;<;-*",
"X#X*o#<<--*o*<-<;;;;---<-<<;;-<*X#***++--<-<<;-;<<",
".**@o-uue<-*<<-;--*-<<;<;<;<<;;-& #-<--<-;;<;<*--;",
"<--@--<e<<<-<<;<<;;-;-;<;;;;-<;<<--;;--;;<;<;;-=<;",
"<-<<-<;<<<-<;<;<<;;;<*-;**-<;;<;<;<;;<-<;=-=;;<;<;",
"<<<<<;;--<<-**;-;-<<-***++-;;<--;-<;;<;;<-*-<;<;;-",
"-<;<;;<<;;-<*-<<<;;;<*##+*;<-;;<;<;<--;;<;;;-;;<;<",
"<-#*-<-<;;;<<;<;;;<-<;#-;*<<**;<;-<-*-<;-;<;<;;;;<",
"-;#$;;;<nn<<;;;<;<-<;<<-*+==%*-<<<-=-;;;-<;<-;<--;",
"<;<+-<<eHG5-<<-<-<;-<-;<;$#%+*<-;;;--<-<**<=#=<;<;",
"-;<-<<<<vv5x<-<-<<<;*<<--*##*-;;<<<<<<l9;#*%%;;;<;",
"<<<<0<<gq<ZKv<<-**<;@#;#o--<;<;<;<-=*nPV<***<;;;<<",
"<;<<ueje5<vDr<<;<;;;&X*o@-;;<;-;<-*=<uZn<;--;;;;<*",
";;<<<ekul5<5<<<**<;;;o*=*-<;-<<;<;<<<<<<<<;;;;;;<<",
"-*-<-<<3<;;;<;<;=;;;;-*--&<;;<;;;-;<;;;<<-<<-*-;<<",
"#*-<<-<-<;;;<;-;*;;;;--#*+*-*-;<;<;;;<<;<<<<-**-<*",
"+*<<-<-<=<<<**<<-*;;<;;o+#@%*;;-<;<-;;;--<<***++*#",
"@-*-<<<-*;<<##;;;;;;;;<@%;#X*;<<;-<;**<<;-<*#++*o.",
"@**<<-<----<-@*-<<;;<;<-<-%*;;;;;<-*-;;;;;;;;#*#*+",
"#-<<-<-<<<<<-*-<-<<-;;;<;;<;-<;<;-<-;<;;;;;;<<;;<*"
};
