/* XPM */
static char *dfbaa75ed0c3429f82096672c034c777qAwO5bhQUxKvG3VC[] = {
/* columns rows colors chars-per-pixel */
"50 50 215 2 ",
"   c #1D1F05",
".  c #231A04",
"X  c #2B1E03",
"o  c #2A150D",
"O  c #2D1B0B",
"+  c #261809",
"@  c #30170E",
"#  c #341B0C",
"$  c #3B1C0D",
"%  c #371D06",
"&  c #351612",
"*  c #3A1615",
"=  c #361810",
"-  c #3C1B12",
";  c #3F1618",
":  c #242106",
">  c #2C2204",
",  c #2C2A07",
"<  c #2C2C0B",
"1  c #29270B",
"2  c #332303",
"3  c #3A2603",
"4  c #3D2904",
"5  c #32250C",
"6  c #3A2B0D",
"7  c #35290B",
"8  c #25330B",
"9  c #2D3A0A",
"0  c #2D3309",
"q  c #343608",
"w  c #333E0A",
"e  c #333209",
"r  c #2B2915",
"t  c #3D2312",
"y  c #362D17",
"u  c #29311D",
"i  c #2A2D2A",
"p  c #292922",
"a  c #373728",
"s  c #373938",
"d  c #2A2E31",
"f  c #421A14",
"g  c #4D1E16",
"h  c #401718",
"j  c #47181A",
"k  c #4B191A",
"l  c #4A1716",
"z  c #531B1C",
"x  c #5B1D1D",
"c  c #422C04",
"v  c #482F04",
"b  c #412F0D",
"n  c #4C3104",
"m  c #4E350D",
"M  c #44360B",
"N  c #533504",
"B  c #5C3904",
"V  c #563909",
"C  c #442313",
"Z  c #492315",
"A  c #4A2B14",
"S  c #4D2318",
"D  c #57201B",
"F  c #5C211C",
"G  c #562918",
"H  c #4D3413",
"J  c #45371A",
"K  c #553E18",
"L  c #653E04",
"P  c #683F04",
"I  c #63221E",
"U  c #65271D",
"Y  c #66301B",
"T  c #5E1E20",
"R  c #631E21",
"E  c #6B1F22",
"W  c #731F23",
"Q  c #443B28",
"!  c #4A332D",
"~  c #672021",
"^  c #6B2123",
"/  c #6A2920",
"(  c #732225",
")  c #7A2427",
"_  c #7E2428",
"`  c #782A23",
"'  c #6E2D30",
"]  c #702F32",
"[  c #2F400E",
"{  c #34440C",
"}  c #34480C",
"|  c #3E4237",
" . c #57450A",
".. c #59500F",
"X. c #494817",
"o. c #554519",
"O. c #504C10",
"+. c #6B4104",
"@. c #734605",
"#. c #774805",
"$. c #7C4B05",
"%. c #6C4D1E",
"&. c #4F601F",
"*. c #564528",
"=. c #45453C",
"-. c #494739",
";. c #504F34",
":. c #654C25",
">. c #497428",
",. c #4E7A2A",
"<. c #467127",
"1. c #507E2C",
"2. c #537028",
"3. c #5A743B",
"4. c #446F25",
"5. c #656234",
"6. c #3C3F41",
"7. c #3D4042",
"8. c #434443",
"9. c #474949",
"0. c #4A4D4C",
"q. c #474946",
"w. c #524E43",
"e. c #5A5B4C",
"r. c #57564A",
"t. c #4C4F52",
"y. c #4C5458",
"u. c #515551",
"i. c #5B5A54",
"p. c #4A5449",
"a. c #644141",
"s. c #685946",
"d. c #715B49",
"f. c #5D6A53",
"g. c #7F6049",
"h. c #656759",
"j. c #6B7151",
"k. c #585E64",
"l. c #586775",
"z. c #53606B",
"x. c #646661",
"c. c #6D6E68",
"v. c #727B69",
"b. c #787A73",
"n. c #7A7C7E",
"m. c #832629",
"M. c #89262A",
"N. c #8D282C",
"B. c #85272B",
"V. c #90292D",
"C. c #853134",
"Z. c #824E05",
"A. c #865005",
"S. c #8A5305",
"D. c #935907",
"F. c #845718",
"G. c #895A4C",
"H. c #90655F",
"J. c #816261",
"K. c #8D7B67",
"L. c #54842D",
"P. c #56882F",
"I. c #58882F",
"U. c #5A8C31",
"Y. c #5D863D",
"T. c #5D9333",
"R. c #618B35",
"E. c #619634",
"W. c #659C36",
"Q. c #689F37",
"!. c #64953B",
"~. c #679E38",
"^. c #689F38",
"/. c #6AA13B",
"(. c #688645",
"). c #6C9D41",
"_. c #6A9446",
"`. c #749A4A",
"'. c #678150",
"]. c #768D57",
"[. c #769952",
"{. c #6FA341",
"}. c #72A545",
"|. c #75A44C",
" X c #76A84B",
".X c #79AA4E",
"XX c #78A44D",
"oX c #7CAC52",
"OX c #7EA859",
"+X c #7D9F60",
"@X c #819E5A",
"#X c #80AE59",
"$X c #84B15C",
"%X c #84B057",
"&X c #859A61",
"*X c #8A9D7C",
"=X c #85816E",
"-X c #87A368",
";X c #8DB663",
":X c #93B966",
">X c #99BD6C",
",X c #92B27A",
"<X c #ADC87F",
"1X c #A3C377",
"2X c #60758C",
"3X c #8B8D8F",
"4X c #8C9D81",
"5X c #969791",
"6X c #A0A483",
"7X c #AAABAB",
"8X c #B5CB80",
"9X c #C3D388",
"0X c #D8DD91",
"qX c #E4E191",
"wX c #EDE490",
/* pixels */
"~..X.X/./.Q.Q.Q.Q.Q.Q.Q.Q./.Q./.Q./.Q.Q.Q./.W.W.W.W.Q./.Q.Q.Q.Q.^.^.^.^.^.^.^.^.^.^.Q.^.^.^.^.^.^.^.",
".X9X9X XQ.Q.Q.Q./.Q./.W.Q.Q.W./.W.E./.Q.Q.Q.Q.W.T.W.W./.Q.Q.Q.Q.^.XX^.^.^.^.^.^.^.^.^.^.W.W.^.^.^.^.",
".X9X<X/.Q.Q.Q.Q./.Q.Q./.Q.Q.E.Q.P.U.Q.Q.Q./.Q.W.W.W.Q.Q././.Q./.;.j.Q.Q.^.^.^.^.^.^.^.^.L.U.^.^.^.^.",
"Q.}.}./.Q.Q.Q.Q.W.T.W.Q./.W.W.E.E.E./.Q.W./.Q./.W././.W.W.T./.} X J /./.^.^.^.^././.^.E.U.W.Q.^.^.^.",
"Q.~.~.^.Q.Q.^.^.W.E.Q.Q.W./.W.Q.T.U.Q./.Q.Q.W.Q.^.^.^.^.W.(., > X y }./.^.^.^.Q.}.oX/.E.I.^.}.^.^.^.",
"^.^.Q.^.Q.Q.^.^.W././.Q.Q.W.T.P.U.E.Q.Q.W././.Q.^.^.^./.5.5 X > X - &X/.^.^.^.Q.^.#X}.}.}..XoX^.^.^.",
"Q.~.Q.^.^.^.^.^.Q.Q.W./.Q./.E.U././.Q./.Q.W.Q.Q.^.^.`.K 3 X X . & W G.W.T.E.Q.Q.^.}.}.#X}.}.^.^.Q.^.",
"E.E.~.^.^.^.^.Q.Q./.Q.Q.Q.Q././.Q.Q.Q.Q.Q././.Q.^.`.b 2 X . o f - ) N.!.L.E./.^.^.^./.oX^.Q.^.Q.W.^.",
"T./.P.T./.~././.~././.W.Q.Q././.^.^.^.^.~./.~.^.j.c 2 X . * h R R x m.g.L.W.Q.^.^.^.^.^.Q.Q./.U.U.Q.",
",.T.P.W.}.$X{.~./.W.W././. X1X/.^.^.^.^.~./.&Xs.3 3 X + * W T z ( g R m.].~.Q.Q.^.^.^.^.Q.Q./.E.U.W.",
"<.P.U./.oX}./.^.Q././.W./.<XwX1X^.^.^.^./.(.6 3 2 + o * l _ ) k ~ S @ $ s.Q.Q.Q.Q.~.^.^.Q.Q.^.^.L.U.",
"W.W.}. X/./.}.}./.W.W././.oX<X/.^.^.^.[.b 3 2 X + o z E k E m.R $ & l l J./.Q.Q.W.E.Q.^.^.^.^.^.~.W.",
"Q.}.#XoX^.}.oXoXQ.Q.Q.Q.Q././.Q.^.).3.3 3 2 . . & ; R ( T k m.E 5 F B._ ' XX^.^.Q.E.Q.^.^.^.^.Q.^.^.",
"Q.}.^.~.^.}./.~./.Q./.Q.Q.W.W./.).F.v 2 2 X + * z T k W _ z z f f z N.M.W =X^.^.Q.^.^.^.^.^.}.Q.^.^.",
"Q.Q.Q.^.^.^.^.^.W.Q.Q.W.Q.Q.Q.W.@XD.+.X + o & z W ) z R M.W $ o R R ( V._ ' XX^.^.^.^.^.^.$X9X#X^.^.",
"Q.Q.^.^.^.^.^.^.Q./.Q././.Q././.5.D.@.X o j T T _ m.( z m.m.f h ) N.I M.N.E d./.^.^.^.^.^.1XqX1X^.^.",
"/.Q./.Q.W./.W././.E.W.~.E.W.W.O.c L N . - ^ m.T R m.m.R T x & h ) V.m./ N.m.Z K.W.Q.~.Q.^./.:X/.Q./.",
"Q.Q.Q.W.Q.Q.Q.Q./.~.T.~.T.Y.X.3 X 4 v 2 # ~ m.) k R B.( * $ E z ~ N.V.U ` N.C -.Q.Q.^.~.^.^.Q.Q.Q.Q.",
"Q.Q.W.E.T.W.Q.Q.W././.E.2.M 2 + c L @.v O F ( ) E k ( I O z _ ( j ) N.F A ` - a.{.^.^.^.^.^.^.^.Q./.",
"W././.Q.E.Q./.Q.W././.&.c 2 > v @.+.#.L > g R ) ( - & @ O G ( m.x F D - o # z ^ 6X^.^.^.^.^.^.^.Q.W.",
"Q.Q.Q././.Q.Q.Q././.&.4 X > N +.Z.@.$.@.4 # x F - o * R D 6 Y B.Z # # k k h E M.J.^.Q.Q.Q.Q.E.Q./.Q.",
"/.W.W.W.W.W./.W.W.U.3 X 2 N +.@.Z.S.$.$.N X $ # & j z ) ) Z H S = t t ) ) z x m.C.XXQ./.Q.Q.W.E.Q.Q.",
"Q.W.T.E.E././.W.W./.j.2 4 L @.+.Z.S.Z.$.+.2 : - ^ ) x ^ B.( - & T ( A I V.E g E N.K./.}.Q.Q.Q.^.Q.W.",
"T.T.W.T.T.W././././.}.v 2 3 L +.Z.S.$.@.$.v 1 Z ( m.D x ) D O ; ~ m./ D W m.R g W G..X X/.Q.^.^././.",
"W.T.U.T.L.T./.T. X#X{.V 2 2 3 N $.A.$.$.A.B 2 t ^ _ A g f # j j T _ ) z z ) m.x S OX{./. X/.Q.Q.Q.Q.",
"Q.Q.>.L.L.L.P.T.oX{./.K X c 3 2 n #.#.$.A.$.c O I / 5 O = ~ ) x T E m._ R z m.x ;.oX/.{. X/./.Q./.Q.",
"/.Q.L.U.T.L.L.T.W.T.^.:.> B v 2 2 v +.$.$.A.N > $ - - z j ( M.( C G ( m.~ $ g % j.#X/././././.Q.W./.",
"Q.Q././. X)././.Q.U.E.:.2 L v 3 4 2 4 B #.A.@.3 . # R m.z T m.m.A q U I 5 O O % [.}././././.Q.W.Q.Q.",
"T.T.T./. XoX/.T.Q.,.Y.*.> +.n 3 c c 2 4 B $.Z.N > t ( M.( j ) B.U < 5 % X % c v ^.^.^.^./.T.W././.Q.",
"/.U.P././.W./.T.P.,.Y.o.X +.+.2 2 c c > 2 N $.N 2 5 ^ M.M.z R m._ 5   > 3 v N N ^.^.^.^.W.W.E.Q.Q.E.",
"T.L.>.T.T.T./.U.4.T.U. .X +.+.. . 2 4 n 2 2 v B 4 1 A ) M.R j ) _ f > 3 n n B V ^.^.^.^.Q././.Q.Q.E.",
"4.U.,.T.,.P./.~.!.W.E.X.X +.L >   , X 4 c 2 > 4 c 2 7 / B.) T E g % > > v n B  .^.^.^.^.Q.Q.W.Q.Q./.",
">.T.T.L.L.E. XoX.X/.Q.O.X +.L > 8 9 , > 2 3 2 2 3 3 : A _ M.g # X 2 y 2 v n B ../././././.W.T.W./.W.",
"/./.W.L.E.Q./. X/././.M X +.L : 8 9 w 0 2 > 3 v 2 3 > t ~ g X 2 2 s 2X5 n n N .././././.E././.E.Q.Q.",
"Q.W./././.Q.Q.Q./.W./.v > +.B X 8 9 { { e X v +.n c 2 X # X 4 4 9.z.y.5 v N N  ./.E.E.E./.Q.Q.Q./.Q.",
"/././.E.Q.W./.Q./.W.@Xv 2 +.B . 8 w { } q 2 N +.B 4 X . X v v c q.y.k.5 n N N m ~.W.T.~.Q.Q.W./.Q.Q.",
"W.Q.W.W./.W.Q./.^.^.e.6 2 +.B . 9 { { } q 2 N +.+.4 . X v n n 4 a k.l.> v N *.=.!./.W./.Q.W.Q././.W.",
"/.Q.P.T.Q./.Q./.^.Q.n.s w.:.B : 8 w 9 { e > n +.+.4 . 2 N N n c t.t.5 y H H w.p.].Q.Q.Q.Q./.Q.Q.Q.Q.",
"Q./.T.P.Q.Q././.>X>X/.3X9.i.*.> 8 0 { { 0 2 v +.L 4 . 3 n N n 4 1 5 b w.r.8.a s x./.Q.Q.W./.Q././.Q.",
"Q.Q.E.L.W.Q.W..X0X0XoX^.-Xt.=.: : 0 0 0 , 2 n +.L 4 . 3 n n n v 2 c *.u.u.9.| j.T.T.W.W.U.E.Q.W.Q.W.",
"W.W././././././.:X;X}.;X/.,Xx.e.a 3 0 , , 2 n +.L 3 . 2 N n n n n v s 9.9.9.,X X/.U.T.T.U.W.~.~.Q./.",
"/./.W./. X/./.oXXX^.<XqX:X~.7Xu.x.a , , , 2 n L L c . > N n n n v Q s s s '.qX8X/.T.T.T.W.W./.~.Q.Q.",
"W.Q././. X XoXoX.X/.:X9X.X{.5X0.6.x.r., > 2 n +.B c . 2 m n m -.=.s 7.i f. X8X>X/.W.W.W.Q.Q.W./.Q./.",
"Q././././..X$X.X#X}./.}.W.[.n.K.i.7.h.r.< > n L B c . y -.J -.7.i i u.}.W././././.~././.Q.Q.Q.Q.W./.",
"W.T.W.Q.W././.}./././.W./.{.'.v.b.h.7.9.[ y V P B 3 . y 7.7.7.p -.*X{./.Q.W.Q.W.Q.Q.W./.W.T.W.Q.W.Q.",
"U.T.W././.Q.Q././.W./.Q./.W.~.Y.p.x.c.s r p r.%.B 3 + y | 7.d f.OX/././.Q.Q.W./.Q./././.W.T.T.W./.T.",
"L.T.Q.Q././././.W./.Q.Q.T.T./.~.|.f.c.7.=.u.9.r.K X . p d | ~.W.W././.W.Q.Q././.Q.W./.T.T.T.L.L.T.L.",
"L.E.W.Q.T./././.T.T././.I.U./.~./.{.f.*X,X$X4Xt.a y r 9.+X/./././.E././.T.W.Q.W.Q././.T.P.>.L.T.L.<.",
"L.T.E.W././.Q.Q.W.W.Q.Q.Q.L.E./.Q.Q.Q.Q.W.W./.}.y.p.7.].W.W.W./.W.Q.W.E.E.Q.Q./.Q.Q.Q.Q./.P.E.U.U.L.",
"P.W.Q.Q.W.Q./.Q.Q.W./.W.Q.T.W.Q.Q.Q.Q.Q./.Q././.[.].4X/./././.W.Q./.Q.W./.Q.Q.Q./.Q./.W./.Q.Q.W.Q.T."
};
