/* XPM */
static char *ac779e7d11f84c24df23fcf47d572a63psXaY8RK2Dgu3fMV[] = {
/* columns rows colors chars-per-pixel */
"50 50 202 2 ",
"   c #030604",
".  c #0C0B0A",
"X  c #0A0605",
"o  c #1A0D0D",
"O  c #170A07",
"+  c #1C130A",
"@  c #12110E",
"#  c #151412",
"$  c #1A1916",
"%  c #1C1C19",
"&  c #191714",
"*  c #0F1314",
"=  c #230C0A",
"-  c #2D0A0B",
";  c #271609",
":  c #261A17",
">  c #361915",
",  c #39150C",
"<  c #1F241B",
"1  c #23241C",
"2  c #2C2D1A",
"3  c #292119",
"4  c #3B241C",
"5  c #3C2B1E",
"6  c #37221D",
"7  c #2B351F",
"8  c #2B2A25",
"9  c #282724",
"0  c #392A23",
"q  c #2E3B21",
"w  c #2B3122",
"e  c #313B23",
"r  c #353534",
"t  c #440D0E",
"y  c #4C0D0E",
"u  c #490E10",
"i  c #550D10",
"p  c #421515",
"a  c #411816",
"s  c #421F18",
"d  c #4B1416",
"f  c #541213",
"g  c #5A1214",
"h  c #5E181A",
"j  c #52110F",
"k  c #640F13",
"l  c #651213",
"z  c #6C1214",
"x  c #731215",
"c  c #791518",
"v  c #432519",
"b  c #4C2E12",
"n  c #6D3D1A",
"m  c #6A1F23",
"M  c #5C2523",
"N  c #45382A",
"B  c #443931",
"V  c #4A3C31",
"C  c #58362A",
"Z  c #633130",
"A  c #334327",
"S  c #384829",
"D  c #3C532B",
"F  c #444A2C",
"G  c #474428",
"H  c #48532F",
"J  c #4C453E",
"K  c #495D32",
"L  c #525238",
"P  c #476D28",
"I  c #4A7529",
"U  c #4D7B2A",
"Y  c #487327",
"T  c #507D2C",
"R  c #486732",
"E  c #506E37",
"W  c #4C7132",
"Q  c #547436",
"!  c #537C35",
"~  c #5A7E3A",
"^  c #55763A",
"/  c #4B4D4E",
"(  c #554B43",
")  c #5D534A",
"_  c #4F5150",
"`  c #62554C",
"'  c #67584B",
"]  c #675B52",
"[  c #705A4D",
"{  c #71645A",
"}  c #6C6258",
"|  c #696968",
" . c #796B61",
".. c #757675",
"X. c #7A7A7A",
"o. c #6D7373",
"O. c #821417",
"+. c #821419",
"@. c #8D151A",
"#. c #89181C",
"$. c #8D1217",
"%. c #93161A",
"&. c #9C161B",
"*. c #9D181D",
"=. c #A5191E",
"-. c #AB191E",
";. c #A4171C",
":. c #B7191F",
">. c #B51A20",
",. c #BE1A21",
"<. c #C41C22",
"1. c #CC1D23",
"2. c #D51E24",
"3. c #DC1F26",
"4. c #E11F27",
"5. c #DD2027",
"6. c #864A1E",
"7. c #965222",
"8. c #9F5824",
"9. c #86796D",
"0. c #8B7A6C",
"q. c #84766B",
"w. c #917C6A",
"e. c #8C7E71",
"r. c #53842D",
"t. c #56892E",
"y. c #598B2F",
"u. c #558530",
"i. c #5A8D31",
"p. c #5B843B",
"a. c #5A8936",
"s. c #5D9333",
"d. c #628E3C",
"f. c #619634",
"g. c #659C36",
"h. c #689F37",
"j. c #65953C",
"k. c #679E38",
"l. c #689F39",
"z. c #68963E",
"x. c #67A037",
"c. c #68A035",
"v. c #67A039",
"b. c #6AA03A",
"n. c #689443",
"m. c #6EA442",
"M. c #72A545",
"N. c #75A749",
"B. c #76A84C",
"V. c #79AA4E",
"C. c #76A946",
"Z. c #7CAC52",
"A. c #7FAF59",
"S. c #81AE58",
"D. c #81AF57",
"F. c #85B15C",
"G. c #84B057",
"H. c #98867A",
"J. c #978274",
"K. c #A28C78",
"L. c #8CB564",
"P. c #94B968",
"I. c #A6C57A",
"U. c #8C8C8C",
"Y. c #838485",
"T. c #989998",
"R. c #B49C8B",
"E. c #B29F90",
"W. c #A49284",
"Q. c #B8A493",
"!. c #9EA2A1",
"~. c #AFB1B0",
"^. c #B8B9B9",
"/. c gray68",
"(. c #C5AD9B",
"). c #C6AA94",
"_. c #CBB09B",
"`. c #D1B39B",
"'. c #CAB4A2",
"]. c #DABDA7",
"[. c #E0BEA5",
"{. c #B5CB80",
"}. c #C4D389",
"|. c #D9DC91",
" X c #EAE28F",
".X c #E6E292",
"XX c #DAC1AD",
"oX c #DDC3B2",
"OX c #E4C4AC",
"+X c #E5C9B4",
"@X c #EDD2BD",
"#X c #EED0B6",
"$X c #F3D5BD",
"%X c #DBDBDC",
"&X c gray80",
"*X c #F5DAC3",
"=X c #F9DDC6",
"-X c #FBDEC8",
";X c #F2D6C2",
":X c #FEE2CB",
">X c #E8E8E8",
",X c #F6F6F6",
/* pixels */
"g.V.C.h.h.l.l.l.h.l.l.l.l.l.l.l.v.k.k.l.x.l.l.k.g.g.l.l.l.l.l.l.x.l.l.l.b.l.l.l.l.l.l.l.l.l.l.l.l.l.",
"V.}.}.C.h.h.l.l.l.h.l.l.l.l.k.l.k.g.k.l.v.l.l.g.f.f.l.l.l.l.l.l.k.b.l.k.l.l.l.l.l.l.l.l.g.l.l.h.l.l.",
"V.}.I.C.g.l.l.l.l.k.l.l.l.l.f.k.u.i.l.k.l.l.l.l.f.k.l.b.l.k.l.l.v.v.l.k.l.l.l.l.l.x.l.c.r.i.b.l.l.l.",
"h.C.C.b.l.l.l.l.k.f.g.h.l.l.g.f.g.g.l.l.l.l.l.h.l.l.l.b.g.s.k.g.i.i.l.l.l.l.l.l.b.b.x.s.i.g.h.l.l.l.",
"x.g.l.l.l.l.l.l.g.f.l.l.l.l.g.h.i.s.l.l.l.l.l.l.l.l.l.h.g.s.f.i.I r.k.l.l.v.h.h.N.A.b.f.t.l.M.l.l.l.",
"x.h.l.l.l.l.l.l.l.h.l.l.l.l.i.t.i.f.l.l.l.l.h.l.l.l.l.l.x.i.u.s.t.g.x.l.l.l.l.l.g.S.C.b.N.V.V.l.l.l.",
"l.l.x.l.l.l.l.l.l.l.l.h.l.h.f.i.h.l.h.l.l.h.l.l.l.l.l.l.l.g.s.k.g.s.g.g.s.f.l.l.l.m.b.S.M.M.l.l.l.l.",
"f.g.g.h.l.l.x.l.l.l.l.l.l.l.l.h.l.l.l.l.l.l.l.l.l.l.l.l.l.x.g.l.s.U f.s.r.f.l.l.l.k.M.A.k.l.l.g.l.l.",
"s.k.t.f.k.v.v.x.x.l.x.l.b.l.l.h.l.l.x.v.x.z.E 7 e e q D z.v.k.x.l.i.i.T r.h.l.l.l.l.l.x.l.l.b.i.i.h.",
"I f.t.g.M.A.m.g.b.l.l.l.b.C.I.C.l.x.l.z.^ 2 v l k %.;.#.G n.l.x.l.f.i.i.k.l.l.l.l.l.l.l.l.l.b.f.i.j.",
"P t.i.b.A.M.x.c.l.v.l.l.b.I. XI.l.b.~ 2 > x &.2.2.1.<.<.#.F n.x.b.x.x.c.h.l.l.k.l.l.b.l.l.l.l.x.r.i.",
"g.g.M.B.b.c.N.M.l.l.l.v.c.D.I.N.l.p.5 l %.5.3.<.-.t = u -.#.F z.l.l.x.l.l.l.l.l.g.f.l.l.x.l.x.c.h.h.",
"l.M.S.Z.x.N.D.Z.x.l.l.x.x.l.l.b.~ 4 z =.5.5.:.t X O = + - ;.#.F a.f.k.x.l.l.l.l.h.g.g.l.l.l.h.g.l.l.",
"l.m.b.k.x.m.b.g.l.l.l.l.l.l.l.~ 0 z -.2.4.:.M N B B B B 0 - =.l R s.v.k.h.l.l.l.l.l.l.l.l.x.m.l.l.l.",
"l.l.l.l.l.k.l.h.l.l.l.l.b.l.b.e g -.2.4.:.m w.].OXOXOXOX).r i %.N W s.g.f.l.l.l.l.l.l.l.l.F.}.D.l.l.",
"l.l.l.k.b.l.l.l.l.l.l.l.l.l.^ 4 x 1.5.4.$.J OX$X:X=X-X:X:X'.Z *.f K t.r.s.l.l.l.l.l.l.l.l.I..XI.l.l.",
"l.l.x.x.l.l.l.l.h.g.g.g.f.l.A f :.2.4.:.M J.#X*X=X=X=X=X;X=X9.k *.N W T h.l.l.l.l.l.l.l.l.b.P.b.x.l.",
"l.l.l.g.k.k.l.b.g.g.s.g.s.E v c 1.5.3.%.G `.e.( Q.-X-X]._ q.q.o %.d E h.l.l.l.h.l.l.l.l.l.l.k.k.l.l.",
"l.l.k.s.f.g.l.l.x.x.g.f.j.D y >.3.4.:.- B J.{ R.+X-X=X@XQ.'.q.  z -.N a.l.l.h.l.l.l.g.x.b.l.b.x.l.l.",
"l.l.k.g.g.k.l.l.l.x.h.h.E > x <.4.5.&.X B ).oX+X].;X=X;X].+X9.X = %.p p.h.l.l.l.l.l.l.x.l.l.l.x.l.l.",
"l.x.l.l.l.l.l.l.l.l.l.h.H t @.<.4.:.- O N OX:X} % Q.:X'.9 ) q.. . +.p p.b.x.b.b.l.l.l.l.l.k.s.g.l.l.",
"l.g.g.h.l.l.l.x.b.l.l.E , c >.3.4.,.= = B OX:X)   E.:X(.. ( q.. . +.a a.l.l.l.b.b.l.l.l.l.l.g.f.l.l.",
"k.g.s.s.k.l.l.l.l.l.l.~ 4 z -.2.4.<.= ; B OX:X`   E.:X'.. J ..X . +.a p.l.l.l.b.G.m.l.M.l.l.l.k.v.l.",
"s.s.g.f.i.b.l.l.l.x.l.l.~ 5 y %.3.:.o X r OX$XH.] '.:X].] e.0.. . +.a a.l.l.h.l.M.M.Z.B.l.l.l.l.l.l.",
"g.s.i.i.T f.k.f.B.S.M.l.l.~ 1 j 1.,.- ( 0.#X=X=X;XH.(.H.@X-X0.. . c p a.l.l.l.l.b.x.m.l.V.N.l.x.l.l.",
"k.g.I r.t.u.r.j.Z.b.l.l.l.l.D j =.1.c [ [.=X=X=X;XH.) e.@X;X .  d f H z.l.l.l.h.N.Z.l.M.V.x.l.l.l.l.",
"x.l.u.s.g.t.U g.g.f.g.h.l.l.p.0 l 1.>.o ] [.$X=X-X;XE.$X;XK.8 . x d u.v.l.l.v.l.l.S.N.x.k.l.l.l.l.x.",
"x.l.l.b.B.n.n.g.g.s.s.h.l.l.l.p.0 +.<.x o ' (._._.`.`.`.K.3 X i h K j.b.l.l.l.l.l.M.b.l.v.k.l.l.l.k.",
"g.s.f.l.V.Z.l.s.g.I r.g.f.g.l.l.d.0 x #.x - 0 6 9 : 0 s > , @.h K a.s.s.k.k.k.l.l.l.l.l.l.f.g.x.l.l.",
"c.y.r.g.k.k.l.f.t.T T f.r.f.c.l.l.p.$ - x @.@.$.s 9 x $.#.x - F m.s.r.t.k.g.k.k.l.l.x.k.l.k.f.k.l.g.",
"s.r.Y g.i.f.l.d.P s.t.r.Y f.c.l.c.Q > g - O : : T.%X8 9 X u c B i.g.y.I s.i.U i.l.l.x.l.l.v.b.l.l.g.",
"Y y.T i.U t.l.g.d.h.g.I f.h.l.l.Q 4 x %.y * Y.X...T.| !.r - ;.#.N ! s.s.g.U r.k.l.l.l.l.l.l.k.l.k.k.",
"P s.g.U U g.Z.Z.V.h.k.g.l.h.l.n.2 l &.m / _ ~.,XT.| %X>X| / C =.f D u.k.l.g.k.l.l.l.g.x.x.l.f.g.l.l.",
"g.c.k.r.h.l.l.V.l.h.l.k.l.h.x.E v @.i r &X~.| ......X.| Y.%Xo.k %.G d.v.l.l.k.l.l.l.l.v.x.l.k.g.l.l.",
"l.l.v.k.l.l.x.l.l.l.l.k.l.k.l.e l -.O @ ..>X^.r ; , # Y.,X/.8 = &.d ! k.l.l.x.k.l.g.g.j.l.l.l.k.l.l.",
"l.l.l.v.l.b.l.x.l.l.l.k.f.f.k.q f t O v v ..U. .V 3 { | !.B ;   z d ! v.l.l.l.k.l.g.s.g.l.l.l.l.l.l.",
"l.l.g.k.l.l.l.l.l.l.l.l.f.g.l.q y ; b 8.8.C ( ).'.W.` ' N 6.6.; = o ! k.g.k.l.l.b.k.l.l.k.l.h.k.l.x.",
"x.g.t.s.h.l.l.l.l.l.l.l.g.x.l.A O v 6.8.7.6.v 0.$X+X2 : n 7.7.n + * p.k.s.g.l.l.k.b.l.l.l.h.l.l.l.l.",
"x.x.d.y.g.l.l.x.P.P.c.l.l.l.l.n.e 1 2 2 1 + . ) R.K.%   & 2 2 2 < E l.s.g.k.x.b.k.k.x.b.k.g.l.l.l.l.",
"l.l.g.r.g.l.h.Z.|.|.V.g.l.l.l.h.k.j.k.j.D # 9 % + @ @ < 1 ^ j.j.z.l.l.k.k.k.g.x.g.s.k.s.y.g.l.h.l.l.",
"l.l.l.g.l.l.l.l.P.P.C.L.l.l.l.g.g.v.k.K % 8 8 % . # 9 8 9 w p.l.l.l.l.k.g.h.L.M.g.i.f.i.i.g.k.k.l.k.",
"l.l.l.m.V.l.l.Z.V.b.I..XP.h.l.g.s.k.d.A $ $ $ w q A % $ # 9 E b.l.l.k.f.f.L..X{.b.s.f.s.g.k.k.k.l.l.",
"l.l.l.l.Z.V.Z.V.N.b.P.}.V.g.l.l.g.k.x.d.D A D R t.k.R D D E l.l.l.l.f.g.g.V.}.P.v.k.k.g.l.x.x.l.c.l.",
"l.l.l.l.l.V.L.V.F.N.l.M.c.l.l.g.f.k.b.l.k.U s.s.f.g.l.v.k.k.l.b.l.l.l.l.x.c.M.x.v.v.l.l.l.b.l.l.z.h.",
"h.s.g.l.l.l.b.V.x.l.l.h.l.l.l.l.g.g.k.x.k.k.s.g.s.s.l.x.l.l.l.l.l.l.v.l.l.l.h.l.l.k.l.l.k.s.k.b.h.h.",
"i.s.k.l.l.l.l.l.l.l.l.l.l.l.l.l.g.g.k.k.x.v.s.y.s.U s.k.f.k.l.x.k.k.l.l.l.l.l.l.l.l.l.l.g.i.s.g.h.g.",
"r.s.x.l.l.l.h.k.h.l.l.l.s.s.c.l.g.s.l.x.l.l.l.U r.t.r.i.i.k.x.l.l.l.x.l.g.g.l.l.k.l.x.g.i.g.U r.f.T ",
"T k.f.l.l.l.l.l.s.h.l.h.y.i.v.h.l.k.l.l.l.l.g.t.t.g.t.I f.b.l.l.l.h.l.h.f.g.l.l.l.l.g.f.y.T T i.U I ",
"r.s.f.g.v.b.x.b.k.k.k.h.k.u.f.k.k.x.l.l.l.x.l.l.v.k.i.s.c.k.k.l.h.l.k.f.f.l.h.l.l.l.k.k.k.y.f.i.y.r.",
"i.g.k.k.v.x.l.l.l.l.l.l.k.i.k.l.l.l.l.l.l.l.l.l.l.l.l.c.v.v.b.k.h.l.k.k.l.l.l.l.l.l.l.c.l.c.l.h.l.f."
};
